<?xml version="1.0"?>
<!DOCTYPE svg PUBLIC "-//W3C//DTD SVG 20010904//EN" "http://www.w3.org/TR/2001/REC-SVG-20010904/DTD/svg10.dtd">
<svg version="1.0" xmlns="http://www.w3.org/2000/svg" id="icon-dove" width="90.000000pt" fill="#0a0ad6be"
        height="80.000000pt" viewBox="0 0 148.000000 148.000000" preserveAspectRatio="xMidYMid meet">

        <g transform="translate(0.000000,148.000000) scale(0.100000,-0.100000)" stroke="none">
                <path d="M649 1464 c-7 -9 -14 -35 -14 -57 0 -29 -6 -47 -23 -64 -19 -19 -23
-33 -21 -71 2 -42 -2 -51 -34 -85 -44 -46 -46 -69 -9 -92 49 -32 158 -150 196
-214 21 -34 36 -64 34 -66 -2 -2 -24 23 -48 57 -38 52 -193 196 -225 209 -6 2
-53 30 -106 62 -118 71 -171 122 -173 169 -2 44 -32 49 -73 11 -40 -37 -59
-93 -44 -135 11 -30 3 -47 -20 -48 -18 0 -41 -76 -36 -119 4 -31 1 -52 -9 -65
-21 -29 -17 -79 8 -111 16 -21 21 -39 19 -74 -1 -38 3 -51 24 -73 14 -16 30
-28 35 -28 6 0 7 -24 4 -57 -5 -48 -3 -62 12 -81 11 -13 28 -24 39 -26 15 -2
20 -11 21 -41 1 -30 8 -45 37 -72 20 -18 46 -33 56 -33 11 0 23 -4 26 -10 17
-28 136 -4 288 57 48 19 90 33 93 30 13 -12 -50 -109 -98 -151 -95 -83 -286
-167 -385 -170 -44 -1 -53 -4 -53 -19 0 -48 46 -77 121 -77 22 0 39 -4 39 -10
0 -6 50 -10 129 -10 l129 0 12 30 c36 87 77 118 227 174 172 65 273 202 320
438 14 70 21 84 60 124 24 25 47 43 52 40 5 -3 12 1 15 10 9 22 8 24 -10 24
-9 0 -24 8 -33 18 -24 28 -56 42 -96 42 -62 0 -93 -23 -179 -133 -16 -20 -32
-37 -35 -37 -3 0 -6 36 -6 79 0 76 -2 84 -57 193 -89 179 -100 215 -106 356
l-5 122 -42 0 c-27 0 -47 -6 -56 -16z m521 -622 c0 -13 -12 -22 -22 -16 -10 6
-1 24 13 24 5 0 9 -4 9 -8z" />
                <path d="M1287 1163 c-4 -3 -7 -26 -7 -50 0 -52 31 -93 56 -72 17 14 18 62 2
92 -19 33 -37 44 -51 30z" />
                <path d="M1180 1006 c0 -7 10 -28 23 -47 24 -36 67 -50 91 -29 10 8 15 7 20
-5 9 -24 65 -18 104 11 26 20 31 29 21 35 -23 14 -93 10 -118 -7 -21 -15 -23
-15 -38 6 -15 21 -69 50 -93 50 -5 0 -10 -6 -10 -14z" />
                <path d="M1319 797 c-22 -15 -35 -32 -37 -50 -3 -23 0 -27 23 -27 30 0 95 58
95 84 0 24 -41 20 -81 -7z" />
                <path d="M1215 698 c-11 -6 -25 -19 -32 -27 -16 -22 1 -31 60 -31 34 0 49 4
54 16 4 11 13 14 29 10 34 -9 30 6 -7 27 -35 20 -75 22 -104 5z" />
        </g>
</svg>